<?xml version="1.0" encoding="UTF-8"?>
<!DOCTYPE svg PUBLIC "-//W3C//DTD SVG 1.1//EN" "http://www.w3.org/Graphics/SVG/1.1/DTD/svg11.dtd">
<!-- Creator: CorelDRAW -->
<svg xmlns="http://www.w3.org/2000/svg" xml:space="preserve" width="10.2761mm" height="10.1832mm" version="1.1" style="shape-rendering:geometricPrecision; text-rendering:geometricPrecision; image-rendering:optimizeQuality; fill-rule:evenodd; clip-rule:evenodd"
viewBox="0 0 15.74 15.6"
 xmlns:xlink="http://www.w3.org/1999/xlink"
 xmlns:xodm="http://www.corel.com/coreldraw/odm/2003">
 <defs>
  <style type="text/css">
   <![CDATA[
    .fil1 {fill:black}
    .fil2 {fill:#CCCCCC}
    .fil0 {fill:#E6E6E6}
   ]]>
  </style>
 </defs>
 <g id="Main">
  <metadata id="CorelCorpID_0Corel-Layer"/>
  <g id="_2276287299936">
   <circle class="fil0" cx="7.94" cy="7.8" r="7.8"/>
   <g>
    <polygon class="fil1" points="4.51,2.42 5.43,3.11 4.31,3.11 4.31,3.55 5.41,3.55 4.41,3.99 4.36,4.69 6.92,3.54 4.65,1.7 "/>
    <polygon class="fil1" points="11.37,2.42 10.46,3.11 11.58,3.11 11.58,3.55 10.48,3.55 11.48,3.99 11.53,4.69 8.96,3.54 11.24,1.7 "/>
   </g>
   <path class="fil1" d="M12.16 5.6c-1.22,0.78 -2.67,1.24 -4.22,1.24 -1.56,0 -3,-0.46 -4.22,-1.24 0.01,0.16 0.03,0.33 0.06,0.48 1.2,0.76 2.63,1.2 4.16,1.2 1.53,0 2.96,-0.44 4.16,-1.2 0.03,-0.16 0.05,-0.32 0.06,-0.48z"/>
   <path class="fil2" d="M8.54 6.82c0.6,-0.72 0.79,-2.41 2.15,-2.51 0.71,-0.05 0.99,1.15 0.99,1.58 -0.94,0.52 -2.01,0.84 -3.14,0.93z"/>
   <path class="fil2" d="M1.42 14.36c-1.83,-1.65 -1.5,-5.42 -1.14,-6.31 0.36,-0.89 -0.82,-3.25 0.64,-3.65 1.46,-0.39 1.98,2.71 2.16,2.86 0.18,0.15 2.36,-0.22 2.61,0.81 0.25,1.02 -0.19,1.58 -0.19,1.58 0,0 0.81,0.24 0.97,0.98 0.16,0.74 -0.44,1.4 -0.44,1.4 0,0 0.56,0.19 0.77,0.75 0.71,1.92 -3.83,2.96 -5.37,1.57z"/>
  </g>
 </g>
</svg>
